<svg xmlns="http://www.w3.org/2000/svg" xmlns:xlink="http://www.w3.org/1999/xlink" width="500" zoomAndPan="magnify" viewBox="0 0 375 374.999991" height="500" preserveAspectRatio="xMidYMid meet" version="1.0"><defs><g/><clipPath id="be50df8419"><path d="M 140 89.742188 L 247.9375 89.742188 L 247.9375 197 L 140 197 Z M 140 89.742188 " clip-rule="nonzero"/></clipPath><clipPath id="0726ba1f0f"><path d="M 158 123 L 242 123 L 242 210.492188 L 158 210.492188 Z M 158 123 " clip-rule="nonzero"/></clipPath><clipPath id="5e482b2fb5"><path d="M 127.1875 96 L 214 96 L 214 180 L 127.1875 180 Z M 127.1875 96 " clip-rule="nonzero"/></clipPath></defs><rect x="-37.5" width="450" fill="#ffffff" y="-37.499999" height="449.999989" fill-opacity="1"/><rect x="-37.5" width="450" fill="#eef4f5" y="-37.499999" height="449.999989" fill-opacity="1"/><g clip-path="url(#be50df8419)"><path fill="#0065dd" d="M 235.46875 89.8125 C 234.964844 89.8125 234.464844 89.84375 233.964844 89.902344 C 233.464844 89.964844 232.972656 90.058594 232.480469 90.179688 C 231.992188 90.300781 231.515625 90.453125 231.042969 90.632812 C 230.574219 90.8125 230.117188 91.023438 229.671875 91.257812 C 229.226562 91.496094 228.800781 91.757812 228.386719 92.046875 C 227.976562 92.335938 227.582031 92.648438 227.207031 92.988281 C 226.835938 93.324219 226.480469 93.683594 226.152344 94.0625 C 225.820312 94.441406 225.515625 94.839844 225.234375 95.257812 C 224.953125 95.675781 224.699219 96.109375 224.472656 96.558594 C 224.242188 97.007812 224.042969 97.46875 223.871094 97.941406 C 223.699219 98.414062 223.558594 98.898438 223.445312 99.386719 C 223.332031 99.878906 223.25 100.375 223.195312 100.875 C 223.144531 101.375 223.125 101.878906 223.132812 102.382812 C 223.140625 102.886719 223.183594 103.386719 223.253906 103.886719 C 223.324219 104.382812 223.425781 104.875 223.554688 105.363281 C 223.6875 105.847656 223.847656 106.324219 224.035156 106.792969 L 140.679688 190.148438 C 140.679688 190.148438 141.21875 190.777344 143.941406 193.546875 C 146.667969 196.316406 147.339844 196.808594 147.339844 196.808594 L 230.636719 113.503906 C 231.054688 113.683594 231.484375 113.839844 231.917969 113.972656 C 232.355469 114.101562 232.800781 114.210938 233.25 114.292969 C 233.695312 114.375 234.148438 114.429688 234.605469 114.464844 C 235.058594 114.496094 235.515625 114.503906 235.96875 114.484375 C 236.425781 114.464844 236.878906 114.421875 237.332031 114.355469 C 237.78125 114.285156 238.226562 114.191406 238.667969 114.074219 C 239.109375 113.957031 239.542969 113.8125 239.964844 113.648438 C 240.390625 113.480469 240.804688 113.292969 241.210938 113.082031 C 241.613281 112.867188 242.003906 112.636719 242.382812 112.378906 C 242.761719 112.125 243.125 111.847656 243.46875 111.554688 C 243.816406 111.257812 244.148438 110.945312 244.460938 110.613281 C 244.773438 110.28125 245.066406 109.929688 245.339844 109.566406 C 245.613281 109.203125 245.867188 108.824219 246.101562 108.429688 C 246.332031 108.039062 246.542969 107.632812 246.730469 107.21875 C 246.914062 106.800781 247.078125 106.375 247.21875 105.941406 C 247.359375 105.507812 247.476562 105.066406 247.566406 104.621094 C 247.65625 104.171875 247.722656 103.722656 247.765625 103.269531 C 247.804688 102.8125 247.824219 102.359375 247.8125 101.902344 C 247.804688 101.445312 247.769531 100.992188 247.710938 100.539062 C 247.648438 100.085938 247.566406 99.640625 247.457031 99.195312 C 247.347656 98.753906 247.214844 98.320312 247.054688 97.890625 C 246.898438 97.460938 246.71875 97.042969 246.515625 96.636719 C 246.308594 96.226562 246.085938 95.832031 245.835938 95.449219 C 245.589844 95.066406 245.320312 94.699219 245.03125 94.34375 C 244.742188 93.992188 244.4375 93.65625 244.109375 93.335938 C 243.785156 93.015625 243.441406 92.71875 243.082031 92.4375 C 242.722656 92.15625 242.351562 91.894531 241.960938 91.652344 C 241.574219 91.414062 241.171875 91.195312 240.761719 91 C 240.347656 90.804688 239.925781 90.632812 239.496094 90.484375 C 239.066406 90.335938 238.625 90.210938 238.183594 90.113281 C 237.738281 90.011719 237.289062 89.9375 236.835938 89.886719 C 236.378906 89.835938 235.925781 89.8125 235.46875 89.8125 Z M 235.46875 106.121094 C 235.207031 106.121094 234.949219 106.097656 234.695312 106.046875 C 234.4375 105.996094 234.191406 105.917969 233.949219 105.820312 C 233.707031 105.71875 233.480469 105.597656 233.261719 105.453125 C 233.046875 105.308594 232.84375 105.144531 232.660156 104.957031 C 232.476562 104.773438 232.3125 104.574219 232.167969 104.355469 C 232.023438 104.140625 231.898438 103.910156 231.800781 103.671875 C 231.699219 103.429688 231.625 103.179688 231.574219 102.925781 C 231.523438 102.667969 231.496094 102.410156 231.496094 102.148438 C 231.496094 101.890625 231.523438 101.632812 231.574219 101.375 C 231.625 101.121094 231.699219 100.871094 231.800781 100.628906 C 231.898438 100.390625 232.023438 100.160156 232.167969 99.945312 C 232.3125 99.726562 232.476562 99.527344 232.660156 99.339844 C 232.84375 99.15625 233.046875 98.992188 233.261719 98.847656 C 233.480469 98.703125 233.707031 98.582031 233.949219 98.480469 C 234.191406 98.382812 234.4375 98.304688 234.695312 98.253906 C 234.949219 98.203125 235.207031 98.179688 235.46875 98.179688 C 235.730469 98.179688 235.988281 98.203125 236.246094 98.253906 C 236.5 98.304688 236.75 98.382812 236.988281 98.480469 C 237.230469 98.582031 237.460938 98.703125 237.675781 98.847656 C 237.894531 98.992188 238.09375 99.15625 238.277344 99.339844 C 238.460938 99.527344 238.628906 99.726562 238.773438 99.945312 C 238.917969 100.160156 239.039062 100.390625 239.140625 100.628906 C 239.238281 100.871094 239.3125 101.121094 239.363281 101.375 C 239.414062 101.632812 239.441406 101.890625 239.441406 102.148438 C 239.441406 102.410156 239.414062 102.667969 239.363281 102.925781 C 239.3125 103.179688 239.238281 103.429688 239.136719 103.667969 C 239.039062 103.910156 238.917969 104.140625 238.769531 104.355469 C 238.625 104.574219 238.460938 104.773438 238.277344 104.957031 C 238.09375 105.140625 237.890625 105.308594 237.675781 105.453125 C 237.457031 105.597656 237.230469 105.71875 236.988281 105.820312 C 236.75 105.917969 236.5 105.992188 236.246094 106.046875 C 235.988281 106.097656 235.730469 106.121094 235.46875 106.121094 Z M 235.46875 106.121094 " fill-opacity="1" fill-rule="nonzero"/></g><g clip-path="url(#0726ba1f0f)"><path fill="#0065dd" d="M 232.867188 123.648438 L 225.960938 130.550781 C 235.777344 148.59375 233.066406 171.699219 217.820312 186.945312 C 216.457031 188.308594 215.019531 189.582031 213.5 190.769531 C 211.984375 191.957031 210.398438 193.046875 208.75 194.042969 C 207.097656 195.035156 205.394531 195.925781 203.636719 196.714844 C 201.878906 197.503906 200.078125 198.179688 198.238281 198.75 C 196.398438 199.316406 194.53125 199.773438 192.632812 200.113281 C 190.738281 200.457031 188.828125 200.683594 186.90625 200.792969 C 184.980469 200.902344 183.058594 200.894531 181.136719 200.769531 C 179.214844 200.648438 177.304688 200.40625 175.414062 200.050781 L 184.972656 190.476562 C 185.40625 190.660156 185.851562 190.820312 186.304688 190.953125 C 186.753906 191.085938 187.214844 191.195312 187.679688 191.273438 C 188.144531 191.355469 188.613281 191.410156 189.082031 191.4375 C 189.554688 191.464844 190.027344 191.464844 190.496094 191.4375 C 190.96875 191.410156 191.4375 191.355469 191.902344 191.273438 C 192.367188 191.195312 192.824219 191.085938 193.277344 190.953125 C 193.730469 190.820312 194.175781 190.660156 194.609375 190.476562 C 195.042969 190.292969 195.464844 190.085938 195.875 189.851562 C 196.285156 189.621094 196.683594 189.363281 197.0625 189.085938 C 197.445312 188.808594 197.808594 188.507812 198.15625 188.1875 C 198.503906 187.867188 198.832031 187.53125 199.140625 187.171875 C 199.445312 186.816406 199.734375 186.441406 200 186.050781 C 200.265625 185.660156 200.507812 185.257812 200.726562 184.839844 C 200.945312 184.421875 201.136719 183.992188 201.308594 183.550781 C 201.476562 183.109375 201.621094 182.660156 201.738281 182.203125 C 201.855469 181.746094 201.949219 181.285156 202.015625 180.816406 C 202.078125 180.351562 202.117188 179.882812 202.128906 179.410156 C 202.140625 178.9375 202.125 178.464844 202.082031 177.996094 C 202.039062 177.527344 201.96875 177.0625 201.871094 176.597656 C 201.777344 176.136719 201.652344 175.683594 201.503906 175.234375 C 201.355469 174.785156 201.183594 174.347656 200.984375 173.917969 C 200.785156 173.492188 200.5625 173.078125 200.316406 172.671875 C 200.070312 172.269531 199.804688 171.882812 199.511719 171.511719 C 199.222656 171.140625 198.910156 170.785156 198.578125 170.449219 C 198.246094 170.113281 197.898438 169.796875 197.53125 169.503906 C 197.164062 169.207031 196.78125 168.933594 196.378906 168.679688 C 195.980469 168.429688 195.570312 168.199219 195.144531 167.996094 C 194.71875 167.789062 194.285156 167.609375 193.835938 167.457031 C 193.390625 167.300781 192.9375 167.171875 192.476562 167.070312 C 192.015625 166.96875 191.550781 166.890625 191.082031 166.84375 C 190.613281 166.792969 190.144531 166.769531 189.671875 166.773438 C 189.199219 166.777344 188.730469 166.8125 188.261719 166.871094 C 187.792969 166.929688 187.328125 167.011719 186.871094 167.125 C 186.414062 167.234375 185.960938 167.375 185.519531 167.535156 C 185.074219 167.699219 184.644531 167.886719 184.222656 168.101562 C 183.800781 168.3125 183.394531 168.550781 183 168.808594 C 182.605469 169.070312 182.226562 169.351562 181.867188 169.65625 C 181.503906 169.957031 181.160156 170.28125 180.835938 170.621094 C 180.511719 170.964844 180.207031 171.324219 179.925781 171.703125 C 179.640625 172.078125 179.378906 172.472656 179.140625 172.878906 C 178.902344 173.285156 178.6875 173.707031 178.496094 174.136719 C 178.308594 174.570312 178.140625 175.011719 178.003906 175.460938 C 177.863281 175.914062 177.75 176.371094 177.664062 176.832031 C 177.574219 177.296875 177.515625 177.765625 177.480469 178.234375 C 177.445312 178.707031 177.441406 179.175781 177.460938 179.648438 C 177.480469 180.121094 177.527344 180.589844 177.601562 181.054688 C 177.675781 181.519531 177.777344 181.980469 177.90625 182.4375 C 178.03125 182.890625 178.183594 183.335938 178.363281 183.773438 L 158.125 204.011719 C 159.496094 204.714844 160.890625 205.363281 162.3125 205.949219 C 163.734375 206.539062 165.179688 207.070312 166.644531 207.542969 C 168.109375 208.015625 169.59375 208.429688 171.09375 208.78125 C 172.589844 209.132812 174.101562 209.421875 175.625 209.652344 C 177.144531 209.882812 178.675781 210.050781 180.210938 210.15625 C 181.746094 210.261719 183.285156 210.308594 184.824219 210.289062 C 186.363281 210.269531 187.902344 210.1875 189.433594 210.046875 C 190.96875 209.902344 192.492188 209.699219 194.007812 209.433594 C 195.523438 209.164062 197.027344 208.839844 198.519531 208.449219 C 200.007812 208.0625 201.480469 207.613281 202.933594 207.105469 C 204.386719 206.597656 205.816406 206.035156 207.226562 205.410156 C 208.632812 204.785156 210.015625 204.105469 211.367188 203.371094 C 212.71875 202.636719 214.039062 201.847656 215.328125 201.007812 C 216.617188 200.164062 217.871094 199.269531 219.089844 198.328125 C 220.304688 197.382812 221.480469 196.390625 222.617188 195.351562 C 223.753906 194.3125 224.847656 193.230469 225.894531 192.101562 C 226.945312 190.976562 227.945312 189.808594 228.898438 188.597656 C 229.851562 187.390625 230.757812 186.144531 231.609375 184.863281 C 232.460938 183.582031 233.261719 182.269531 234.007812 180.921875 C 234.753906 179.574219 235.445312 178.199219 236.082031 176.796875 C 236.71875 175.394531 237.292969 173.96875 237.816406 172.519531 C 238.335938 171.070312 238.792969 169.601562 239.195312 168.117188 C 239.597656 166.628906 239.9375 165.128906 240.214844 163.613281 C 240.496094 162.101562 240.710938 160.578125 240.867188 159.046875 C 241.023438 157.515625 241.117188 155.976562 241.148438 154.4375 C 241.183594 152.898438 241.152344 151.359375 241.058594 149.824219 C 240.964844 148.289062 240.808594 146.757812 240.59375 145.230469 C 240.375 143.707031 240.097656 142.195312 239.757812 140.691406 C 239.417969 139.191406 239.019531 137.707031 238.558594 136.234375 C 238.097656 134.765625 237.582031 133.320312 237.003906 131.890625 C 236.425781 130.464844 235.792969 129.0625 235.101562 127.6875 C 234.410156 126.308594 233.664062 124.964844 232.867188 123.648438 Z M 189.796875 175.15625 C 190.058594 175.15625 190.316406 175.183594 190.570312 175.234375 C 190.828125 175.285156 191.074219 175.359375 191.316406 175.460938 C 191.558594 175.558594 191.785156 175.683594 192.003906 175.828125 C 192.21875 175.972656 192.421875 176.136719 192.605469 176.320312 C 192.789062 176.503906 192.953125 176.707031 193.097656 176.921875 C 193.242188 177.140625 193.367188 177.367188 193.464844 177.609375 C 193.566406 177.851562 193.640625 178.097656 193.691406 178.355469 C 193.742188 178.609375 193.769531 178.867188 193.769531 179.128906 C 193.769531 179.390625 193.742188 179.648438 193.691406 179.902344 C 193.640625 180.160156 193.566406 180.410156 193.464844 180.648438 C 193.367188 180.890625 193.242188 181.117188 193.097656 181.335938 C 192.953125 181.550781 192.789062 181.753906 192.605469 181.9375 C 192.421875 182.121094 192.21875 182.285156 192.003906 182.433594 C 191.785156 182.578125 191.558594 182.699219 191.316406 182.796875 C 191.074219 182.898438 190.828125 182.972656 190.570312 183.023438 C 190.316406 183.074219 190.058594 183.101562 189.796875 183.101562 C 189.535156 183.101562 189.277344 183.074219 189.019531 183.023438 C 188.765625 182.972656 188.515625 182.898438 188.277344 182.796875 C 188.035156 182.699219 187.804688 182.578125 187.589844 182.433594 C 187.371094 182.285156 187.171875 182.121094 186.988281 181.9375 C 186.804688 181.753906 186.636719 181.550781 186.492188 181.335938 C 186.347656 181.117188 186.226562 180.890625 186.125 180.648438 C 186.027344 180.410156 185.953125 180.160156 185.902344 179.902344 C 185.851562 179.648438 185.824219 179.390625 185.824219 179.128906 C 185.824219 178.867188 185.847656 178.609375 185.898438 178.355469 C 185.949219 178.097656 186.027344 177.847656 186.125 177.609375 C 186.226562 177.367188 186.347656 177.136719 186.492188 176.921875 C 186.636719 176.703125 186.800781 176.503906 186.988281 176.316406 C 187.171875 176.132812 187.371094 175.96875 187.589844 175.824219 C 187.804688 175.675781 188.035156 175.554688 188.273438 175.453125 C 188.515625 175.355469 188.765625 175.277344 189.019531 175.226562 C 189.277344 175.175781 189.535156 175.148438 189.796875 175.148438 Z M 189.796875 175.15625 " fill-opacity="1" fill-rule="nonzero"/></g><g clip-path="url(#5e482b2fb5)"><path fill="#0065dd" d="M 184.1875 105.726562 C 188.164062 105.71875 192.078125 106.207031 195.933594 107.1875 C 199.789062 108.164062 203.460938 109.609375 206.949219 111.511719 L 213.839844 104.625 C 212.523438 103.824219 211.179688 103.078125 209.804688 102.386719 C 208.425781 101.695312 207.027344 101.0625 205.597656 100.484375 C 204.171875 99.90625 202.722656 99.390625 201.253906 98.929688 C 199.785156 98.46875 198.296875 98.070312 196.796875 97.730469 C 195.296875 97.390625 193.78125 97.113281 192.257812 96.894531 C 190.734375 96.675781 189.203125 96.523438 187.664062 96.429688 C 186.128906 96.335938 184.589844 96.304688 183.050781 96.335938 C 181.511719 96.367188 179.976562 96.460938 178.445312 96.617188 C 176.914062 96.773438 175.390625 96.992188 173.875 97.269531 C 172.363281 97.546875 170.859375 97.890625 169.375 98.289062 C 167.886719 98.691406 166.417969 99.148438 164.96875 99.667969 C 163.519531 100.191406 162.09375 100.765625 160.691406 101.402344 C 159.289062 102.035156 157.914062 102.726562 156.570312 103.472656 C 155.222656 104.222656 153.90625 105.019531 152.625 105.875 C 151.34375 106.726562 150.097656 107.628906 148.890625 108.582031 C 147.679688 109.535156 146.511719 110.539062 145.386719 111.585938 C 144.257812 112.636719 143.175781 113.726562 142.136719 114.863281 C 141.097656 116 140.105469 117.175781 139.160156 118.390625 C 138.21875 119.609375 137.324219 120.859375 136.480469 122.148438 C 135.640625 123.4375 134.851562 124.757812 134.113281 126.113281 C 133.378906 127.464844 132.699219 128.84375 132.074219 130.253906 C 131.453125 131.660156 130.886719 133.089844 130.378906 134.546875 C 129.871094 136 129.421875 137.46875 129.035156 138.960938 C 128.644531 140.449219 128.316406 141.953125 128.050781 143.46875 C 127.785156 144.984375 127.578125 146.511719 127.4375 148.042969 C 127.292969 149.578125 127.210938 151.113281 127.191406 152.652344 C 127.175781 154.191406 127.21875 155.730469 127.324219 157.265625 C 127.429688 158.800781 127.597656 160.332031 127.828125 161.855469 C 128.054688 163.375 128.347656 164.886719 128.699219 166.386719 C 129.050781 167.886719 129.460938 169.367188 129.933594 170.832031 C 130.40625 172.296875 130.9375 173.742188 131.527344 175.164062 C 132.113281 176.585938 132.761719 177.984375 133.460938 179.355469 L 173.339844 139.476562 C 173.777344 139.652344 174.222656 139.804688 174.675781 139.929688 C 175.128906 140.054688 175.589844 140.15625 176.054688 140.230469 C 176.519531 140.300781 176.988281 140.347656 177.457031 140.367188 C 177.929688 140.386719 178.398438 140.378906 178.871094 140.347656 C 179.339844 140.3125 179.804688 140.25 180.269531 140.164062 C 180.730469 140.074219 181.1875 139.960938 181.636719 139.820312 C 182.085938 139.679688 182.527344 139.515625 182.957031 139.324219 C 183.390625 139.136719 183.808594 138.921875 184.214844 138.679688 C 184.621094 138.441406 185.011719 138.183594 185.386719 137.898438 C 185.765625 137.613281 186.125 137.3125 186.464844 136.984375 C 186.804688 136.660156 187.128906 136.320312 187.429688 135.957031 C 187.730469 135.59375 188.011719 135.21875 188.269531 134.824219 C 188.53125 134.429688 188.765625 134.023438 188.976562 133.601562 C 189.1875 133.179688 189.375 132.75 189.539062 132.308594 C 189.703125 131.867188 189.839844 131.414062 189.949219 130.957031 C 190.058594 130.5 190.144531 130.035156 190.203125 129.570312 C 190.261719 129.101562 190.292969 128.632812 190.296875 128.160156 C 190.300781 127.691406 190.277344 127.21875 190.226562 126.753906 C 190.175781 126.285156 190.101562 125.820312 189.996094 125.359375 C 189.894531 124.898438 189.765625 124.449219 189.609375 124.003906 C 189.453125 123.558594 189.273438 123.125 189.070312 122.699219 C 188.867188 122.273438 188.636719 121.863281 188.386719 121.464844 C 188.132812 121.066406 187.859375 120.683594 187.5625 120.316406 C 187.265625 119.953125 186.953125 119.601562 186.617188 119.273438 C 186.28125 118.941406 185.925781 118.632812 185.554688 118.34375 C 185.183594 118.050781 184.796875 117.785156 184.394531 117.539062 C 183.992188 117.292969 183.578125 117.070312 183.152344 116.875 C 182.722656 116.675781 182.285156 116.503906 181.839844 116.355469 C 181.390625 116.207031 180.9375 116.085938 180.476562 115.988281 C 180.015625 115.894531 179.546875 115.824219 179.078125 115.78125 C 178.609375 115.742188 178.140625 115.726562 177.667969 115.738281 C 177.199219 115.75 176.730469 115.785156 176.261719 115.851562 C 175.796875 115.917969 175.335938 116.007812 174.878906 116.128906 C 174.421875 116.246094 173.976562 116.390625 173.535156 116.558594 C 173.09375 116.730469 172.667969 116.921875 172.25 117.140625 C 171.832031 117.359375 171.429688 117.601562 171.039062 117.867188 C 170.648438 118.132812 170.277344 118.417969 169.921875 118.726562 C 169.5625 119.035156 169.226562 119.363281 168.90625 119.710938 C 168.585938 120.054688 168.289062 120.417969 168.011719 120.800781 C 167.734375 121.179688 167.480469 121.578125 167.246094 121.988281 C 167.015625 122.398438 166.808594 122.820312 166.625 123.253906 C 166.441406 123.6875 166.28125 124.128906 166.148438 124.582031 C 166.015625 125.035156 165.910156 125.492188 165.828125 125.957031 C 165.75 126.417969 165.695312 126.886719 165.667969 127.359375 C 165.644531 127.828125 165.644531 128.296875 165.671875 128.769531 C 165.699219 129.238281 165.75 129.707031 165.832031 130.171875 C 165.914062 130.632812 166.019531 131.09375 166.152344 131.542969 C 166.285156 131.996094 166.445312 132.4375 166.628906 132.871094 L 137.433594 162.070312 C 137.269531 161.214844 137.132812 160.355469 137.019531 159.492188 C 136.90625 158.628906 136.816406 157.765625 136.75 156.894531 C 136.683594 156.027344 136.640625 155.160156 136.625 154.289062 C 136.605469 153.417969 136.609375 152.546875 136.640625 151.675781 C 136.667969 150.808594 136.722656 149.9375 136.800781 149.070312 C 136.878906 148.203125 136.976562 147.339844 137.101562 146.476562 C 137.226562 145.617188 137.375 144.757812 137.546875 143.90625 C 137.71875 143.050781 137.914062 142.203125 138.132812 141.359375 C 138.351562 140.519531 138.59375 139.683594 138.855469 138.851562 C 139.121094 138.023438 139.40625 137.203125 139.714844 136.386719 C 140.027344 135.574219 140.355469 134.769531 140.710938 133.972656 C 141.0625 133.179688 141.4375 132.394531 141.835938 131.617188 C 142.234375 130.84375 142.648438 130.078125 143.089844 129.328125 C 143.527344 128.574219 143.984375 127.835938 144.464844 127.109375 C 144.945312 126.382812 145.445312 125.667969 145.960938 124.96875 C 146.480469 124.269531 147.015625 123.585938 147.574219 122.914062 C 148.128906 122.246094 148.703125 121.589844 149.296875 120.953125 C 149.886719 120.3125 150.496094 119.691406 151.121094 119.085938 C 151.746094 118.480469 152.390625 117.894531 153.046875 117.324219 C 153.707031 116.753906 154.378906 116.203125 155.070312 115.671875 C 155.757812 115.136719 156.460938 114.625 157.175781 114.132812 C 157.894531 113.636719 158.625 113.164062 159.367188 112.707031 C 160.109375 112.253906 160.863281 111.820312 161.628906 111.410156 C 162.398438 110.996094 163.175781 110.605469 163.960938 110.234375 C 164.75 109.863281 165.546875 109.515625 166.355469 109.191406 C 167.164062 108.863281 167.976562 108.558594 168.800781 108.277344 C 169.625 107.996094 170.457031 107.738281 171.292969 107.503906 C 172.132812 107.269531 172.976562 107.054688 173.828125 106.867188 C 174.675781 106.675781 175.53125 106.511719 176.390625 106.367188 C 177.25 106.226562 178.109375 106.105469 178.976562 106.011719 C 179.839844 105.917969 180.707031 105.84375 181.578125 105.796875 C 182.445312 105.75 183.316406 105.726562 184.1875 105.726562 Z M 177.988281 124.0625 C 178.25 124.0625 178.507812 124.089844 178.761719 124.140625 C 179.019531 124.191406 179.265625 124.265625 179.507812 124.367188 C 179.75 124.464844 179.976562 124.589844 180.195312 124.734375 C 180.410156 124.878906 180.613281 125.042969 180.796875 125.226562 C 180.980469 125.410156 181.144531 125.613281 181.289062 125.828125 C 181.433594 126.046875 181.558594 126.273438 181.65625 126.515625 C 181.757812 126.757812 181.832031 127.003906 181.882812 127.261719 C 181.933594 127.515625 181.960938 127.773438 181.960938 128.035156 C 181.960938 128.296875 181.933594 128.554688 181.882812 128.808594 C 181.832031 129.066406 181.757812 129.316406 181.65625 129.554688 C 181.558594 129.796875 181.433594 130.023438 181.289062 130.242188 C 181.144531 130.460938 180.980469 130.660156 180.796875 130.84375 C 180.613281 131.027344 180.410156 131.191406 180.195312 131.339844 C 179.976562 131.484375 179.75 131.605469 179.507812 131.703125 C 179.265625 131.804688 179.019531 131.878906 178.761719 131.929688 C 178.507812 131.980469 178.25 132.007812 177.988281 132.007812 C 177.726562 132.007812 177.46875 131.980469 177.214844 131.929688 C 176.957031 131.878906 176.710938 131.804688 176.46875 131.703125 C 176.226562 131.605469 176 131.484375 175.78125 131.339844 C 175.566406 131.191406 175.363281 131.027344 175.179688 130.84375 C 174.996094 130.660156 174.832031 130.460938 174.6875 130.242188 C 174.539062 130.023438 174.417969 129.796875 174.320312 129.554688 C 174.21875 129.316406 174.144531 129.066406 174.09375 128.808594 C 174.042969 128.554688 174.015625 128.296875 174.015625 128.035156 C 174.015625 127.507812 174.117188 127.003906 174.320312 126.515625 C 174.523438 126.03125 174.808594 125.601562 175.179688 125.230469 C 175.554688 124.855469 175.984375 124.570312 176.46875 124.367188 C 176.957031 124.164062 177.460938 124.066406 177.988281 124.0625 Z M 177.988281 124.0625 " fill-opacity="1" fill-rule="nonzero"/></g><g fill="#071214" fill-opacity="1"><g transform="translate(109.394529, 257.806229)"><g><path d="M 1.296875 0 L 1.296875 -5.25 L 11.828125 -18.875 L 1.703125 -18.875 L 1.703125 -25.3125 L 21.109375 -25.3125 L 21.109375 -20.0625 L 10.59375 -6.4375 L 21.375 -6.4375 L 21.375 0 Z M 1.296875 0 "/></g></g></g><g fill="#071214" fill-opacity="1"><g transform="translate(132.090839, 257.806229)"><g><path d="M 2.671875 0 L 2.671875 -25.3125 L 20.03125 -25.3125 L 20.03125 -19.421875 L 9.90625 -19.421875 L 9.90625 -15.734375 L 19.046875 -15.734375 L 19.046875 -9.875 L 9.90625 -9.875 L 9.90625 -5.96875 L 20.421875 -5.96875 L 20.421875 0 Z M 2.671875 0 "/></g></g></g><g fill="#071214" fill-opacity="1"><g transform="translate(154.136622, 257.806229)"><g><path d="M 2.671875 0 L 2.671875 -25.3125 L 8.640625 -25.3125 L 18.265625 -12.46875 L 18.265625 -25.3125 L 25.453125 -25.3125 L 25.453125 0 L 19.53125 0 L 9.90625 -12.90625 L 9.90625 0 Z M 2.671875 0 "/></g></g></g><g fill="#071214" fill-opacity="1"><g transform="translate(182.290161, 257.806229)"><g><path d="M 15 0.546875 C 12.976562 0.546875 11.128906 0.226562 9.453125 -0.40625 C 7.773438 -1.050781 6.320312 -1.960938 5.09375 -3.140625 C 3.863281 -4.328125 2.910156 -5.726562 2.234375 -7.34375 C 1.566406 -8.957031 1.234375 -10.726562 1.234375 -12.65625 C 1.234375 -14.582031 1.566406 -16.351562 2.234375 -17.96875 C 2.910156 -19.582031 3.863281 -20.976562 5.09375 -22.15625 C 6.320312 -23.34375 7.773438 -24.253906 9.453125 -24.890625 C 11.128906 -25.535156 12.976562 -25.859375 15 -25.859375 C 17.03125 -25.859375 18.878906 -25.535156 20.546875 -24.890625 C 22.222656 -24.253906 23.675781 -23.34375 24.90625 -22.15625 C 26.132812 -20.976562 27.085938 -19.582031 27.765625 -17.96875 C 28.441406 -16.351562 28.78125 -14.582031 28.78125 -12.65625 C 28.78125 -10.726562 28.441406 -8.957031 27.765625 -7.34375 C 27.085938 -5.726562 26.132812 -4.328125 24.90625 -3.140625 C 23.675781 -1.960938 22.222656 -1.050781 20.546875 -0.40625 C 18.878906 0.226562 17.03125 0.546875 15 0.546875 Z M 8.640625 -12.65625 C 8.640625 -11.40625 8.910156 -10.289062 9.453125 -9.3125 C 9.992188 -8.332031 10.742188 -7.570312 11.703125 -7.03125 C 12.671875 -6.488281 13.769531 -6.21875 15 -6.21875 C 16.257812 -6.21875 17.363281 -6.488281 18.3125 -7.03125 C 19.257812 -7.570312 20.003906 -8.332031 20.546875 -9.3125 C 21.097656 -10.289062 21.375 -11.40625 21.375 -12.65625 C 21.375 -13.9375 21.097656 -15.054688 20.546875 -16.015625 C 20.003906 -16.984375 19.257812 -17.738281 18.3125 -18.28125 C 17.363281 -18.820312 16.257812 -19.09375 15 -19.09375 C 13.769531 -19.09375 12.671875 -18.820312 11.703125 -18.28125 C 10.742188 -17.738281 9.992188 -16.984375 9.453125 -16.015625 C 8.910156 -15.054688 8.640625 -13.9375 8.640625 -12.65625 Z M 8.640625 -12.65625 "/></g></g></g><g fill="#071214" fill-opacity="1"><g transform="translate(212.323015, 257.806229)"><g><path d="M 2.671875 0 L 2.671875 -25.3125 L 14.203125 -25.3125 C 16.253906 -25.3125 18.019531 -24.941406 19.5 -24.203125 C 20.988281 -23.472656 22.132812 -22.429688 22.9375 -21.078125 C 23.75 -19.722656 24.15625 -18.109375 24.15625 -16.234375 C 24.15625 -14.472656 23.789062 -12.9375 23.0625 -11.625 C 22.34375 -10.3125 21.304688 -9.28125 19.953125 -8.53125 L 24.625 0 L 16.34375 0 L 12.734375 -7.1875 L 9.984375 -7.1875 L 9.984375 0 Z M 9.828125 -13.015625 L 13.234375 -13.015625 C 14.390625 -13.015625 15.273438 -13.289062 15.890625 -13.84375 C 16.503906 -14.394531 16.8125 -15.179688 16.8125 -16.203125 C 16.8125 -17.210938 16.503906 -17.988281 15.890625 -18.53125 C 15.273438 -19.070312 14.390625 -19.34375 13.234375 -19.34375 L 9.828125 -19.34375 Z M 9.828125 -13.015625 "/></g></g></g><g fill="#071214" fill-opacity="1"><g transform="translate(238.344257, 257.806229)"><g><path d="M 0.1875 0 L 10.015625 -25.3125 L 17.25 -25.3125 L 27.078125 0 L 19.3125 0 L 17.9375 -3.578125 L 9.296875 -3.578125 L 7.921875 0 Z M 10.8125 -8.9375 L 16.453125 -8.9375 L 13.625 -16.78125 Z M 10.8125 -8.9375 "/></g></g></g><g fill="#071214" fill-opacity="1"><g transform="translate(109.991434, 283.506603)"><g><path d="M 3.03125 0 L 3.03125 -6.609375 L 0.359375 -6.609375 L 0.359375 -8.40625 L 7.59375 -8.40625 L 7.59375 -6.609375 L 4.9375 -6.609375 L 4.9375 0 Z M 3.03125 0 "/></g></g></g><g fill="#071214" fill-opacity="1"><g transform="translate(118.875624, 283.506603)"><g><path d="M 1.015625 0 L 1.015625 -8.40625 L 6.53125 -8.40625 L 6.53125 -6.796875 L 2.90625 -6.796875 L 2.90625 -5.046875 L 6.203125 -5.046875 L 6.203125 -3.453125 L 2.90625 -3.453125 L 2.90625 -1.625 L 6.65625 -1.625 L 6.65625 0 Z M 1.015625 0 "/></g></g></g><g fill="#071214" fill-opacity="1"><g transform="translate(127.076476, 283.506603)"><g><path d="M 4.859375 0.171875 C 4.015625 0.171875 3.265625 -0.015625 2.609375 -0.390625 C 1.953125 -0.765625 1.4375 -1.28125 1.0625 -1.9375 C 0.695312 -2.59375 0.515625 -3.347656 0.515625 -4.203125 C 0.515625 -5.054688 0.695312 -5.8125 1.0625 -6.46875 C 1.4375 -7.125 1.945312 -7.632812 2.59375 -8 C 3.25 -8.375 4 -8.5625 4.84375 -8.5625 C 5.5625 -8.5625 6.210938 -8.425781 6.796875 -8.15625 C 7.390625 -7.882812 7.890625 -7.5 8.296875 -7 C 8.703125 -6.507812 8.984375 -5.925781 9.140625 -5.25 L 7.171875 -5.25 C 7.015625 -5.71875 6.734375 -6.082031 6.328125 -6.34375 C 5.921875 -6.613281 5.445312 -6.75 4.90625 -6.75 C 4.4375 -6.75 4.015625 -6.640625 3.640625 -6.421875 C 3.265625 -6.210938 2.972656 -5.914062 2.765625 -5.53125 C 2.554688 -5.144531 2.453125 -4.703125 2.453125 -4.203125 C 2.453125 -3.691406 2.554688 -3.242188 2.765625 -2.859375 C 2.972656 -2.484375 3.257812 -2.1875 3.625 -1.96875 C 4 -1.75 4.421875 -1.640625 4.890625 -1.640625 C 5.441406 -1.640625 5.925781 -1.78125 6.34375 -2.0625 C 6.757812 -2.351562 7.054688 -2.738281 7.234375 -3.21875 L 9.203125 -3.21875 C 9.066406 -2.539062 8.796875 -1.945312 8.390625 -1.4375 C 7.984375 -0.925781 7.476562 -0.53125 6.875 -0.25 C 6.269531 0.03125 5.597656 0.171875 4.859375 0.171875 Z M 4.859375 0.171875 "/></g></g></g><g fill="#071214" fill-opacity="1"><g transform="translate(137.686961, 283.506603)"><g><path d="M 6.203125 0 L 6.203125 -3.390625 L 2.921875 -3.390625 L 2.921875 0 L 1.015625 0 L 1.015625 -8.40625 L 2.921875 -8.40625 L 2.921875 -5.171875 L 6.203125 -5.171875 L 6.203125 -8.40625 L 8.109375 -8.40625 L 8.109375 0 Z M 6.203125 0 "/></g></g></g><g fill="#071214" fill-opacity="1"><g transform="translate(147.734009, 283.506603)"><g/></g></g><g fill="#071214" fill-opacity="1"><g transform="translate(151.487242, 283.506603)"><g><path d="M 3.9375 0.171875 C 3.226562 0.171875 2.617188 0.0546875 2.109375 -0.171875 C 1.609375 -0.410156 1.21875 -0.742188 0.9375 -1.171875 C 0.664062 -1.597656 0.53125 -2.097656 0.53125 -2.671875 L 2.40625 -2.671875 C 2.40625 -2.273438 2.539062 -1.960938 2.8125 -1.734375 C 3.09375 -1.515625 3.460938 -1.40625 3.921875 -1.40625 C 4.328125 -1.40625 4.644531 -1.484375 4.875 -1.640625 C 5.101562 -1.796875 5.21875 -2.015625 5.21875 -2.296875 C 5.21875 -2.585938 5.078125 -2.820312 4.796875 -3 C 4.515625 -3.1875 4.078125 -3.347656 3.484375 -3.484375 C 2.503906 -3.691406 1.773438 -4.003906 1.296875 -4.421875 C 0.828125 -4.847656 0.59375 -5.398438 0.59375 -6.078125 C 0.59375 -6.847656 0.875 -7.453125 1.4375 -7.890625 C 2 -8.335938 2.765625 -8.5625 3.734375 -8.5625 C 4.398438 -8.5625 4.972656 -8.445312 5.453125 -8.21875 C 5.941406 -8 6.320312 -7.679688 6.59375 -7.265625 C 6.863281 -6.847656 7 -6.359375 7 -5.796875 L 5.15625 -5.796875 C 5.15625 -6.171875 5.03125 -6.46875 4.78125 -6.6875 C 4.539062 -6.90625 4.195312 -7.015625 3.75 -7.015625 C 3.351562 -7.015625 3.035156 -6.9375 2.796875 -6.78125 C 2.566406 -6.625 2.453125 -6.40625 2.453125 -6.125 C 2.453125 -5.863281 2.582031 -5.644531 2.84375 -5.46875 C 3.101562 -5.289062 3.550781 -5.128906 4.1875 -4.984375 C 5.238281 -4.734375 5.992188 -4.398438 6.453125 -3.984375 C 6.921875 -3.566406 7.15625 -3.023438 7.15625 -2.359375 C 7.15625 -1.566406 6.867188 -0.945312 6.296875 -0.5 C 5.722656 -0.0507812 4.9375 0.171875 3.9375 0.171875 Z M 3.9375 0.171875 "/></g></g></g><g fill="#071214" fill-opacity="1"><g transform="translate(160.107689, 283.506603)"><g><path d="M 4.984375 0.171875 C 4.117188 0.171875 3.347656 -0.015625 2.671875 -0.390625 C 1.992188 -0.765625 1.460938 -1.28125 1.078125 -1.9375 C 0.703125 -2.59375 0.515625 -3.347656 0.515625 -4.203125 C 0.515625 -5.054688 0.703125 -5.8125 1.078125 -6.46875 C 1.460938 -7.125 1.992188 -7.632812 2.671875 -8 C 3.347656 -8.375 4.117188 -8.5625 4.984375 -8.5625 C 5.867188 -8.5625 6.644531 -8.375 7.3125 -8 C 7.988281 -7.632812 8.519531 -7.125 8.90625 -6.46875 C 9.289062 -5.8125 9.484375 -5.054688 9.484375 -4.203125 C 9.484375 -3.347656 9.289062 -2.59375 8.90625 -1.9375 C 8.519531 -1.28125 7.988281 -0.765625 7.3125 -0.390625 C 6.644531 -0.015625 5.867188 0.171875 4.984375 0.171875 Z M 2.453125 -4.203125 C 2.453125 -3.691406 2.5625 -3.242188 2.78125 -2.859375 C 3 -2.484375 3.296875 -2.1875 3.671875 -1.96875 C 4.054688 -1.75 4.492188 -1.640625 4.984375 -1.640625 C 5.492188 -1.640625 5.9375 -1.75 6.3125 -1.96875 C 6.695312 -2.1875 6.992188 -2.484375 7.203125 -2.859375 C 7.421875 -3.242188 7.53125 -3.691406 7.53125 -4.203125 C 7.53125 -4.703125 7.421875 -5.144531 7.203125 -5.53125 C 6.992188 -5.914062 6.695312 -6.210938 6.3125 -6.421875 C 5.9375 -6.640625 5.492188 -6.75 4.984375 -6.75 C 4.492188 -6.75 4.054688 -6.640625 3.671875 -6.421875 C 3.296875 -6.210938 3 -5.914062 2.78125 -5.53125 C 2.5625 -5.144531 2.453125 -4.703125 2.453125 -4.203125 Z M 2.453125 -4.203125 "/></g></g></g><g fill="#071214" fill-opacity="1"><g transform="translate(171.029878, 283.506603)"><g><path d="M 1.015625 0 L 1.015625 -8.40625 L 2.921875 -8.40625 L 2.921875 -1.78125 L 6.59375 -1.78125 L 6.59375 0 Z M 1.015625 0 "/></g></g></g><g fill="#071214" fill-opacity="1"><g transform="translate(178.871089, 283.506603)"><g><path d="M 4.4375 0.171875 C 3.707031 0.171875 3.082031 0.0234375 2.5625 -0.265625 C 2.039062 -0.554688 1.632812 -0.972656 1.34375 -1.515625 C 1.0625 -2.054688 0.921875 -2.703125 0.921875 -3.453125 L 0.921875 -8.40625 L 2.828125 -8.40625 L 2.828125 -3.59375 C 2.828125 -2.289062 3.363281 -1.640625 4.4375 -1.640625 C 5.507812 -1.640625 6.046875 -2.289062 6.046875 -3.59375 L 6.046875 -8.40625 L 7.953125 -8.40625 L 7.953125 -3.453125 C 7.953125 -2.703125 7.8125 -2.054688 7.53125 -1.515625 C 7.25 -0.972656 6.84375 -0.554688 6.3125 -0.265625 C 5.789062 0.0234375 5.164062 0.171875 4.4375 0.171875 Z M 4.4375 0.171875 "/></g></g></g><g fill="#071214" fill-opacity="1"><g transform="translate(188.678372, 283.506603)"><g><path d="M 3.03125 0 L 3.03125 -6.609375 L 0.359375 -6.609375 L 0.359375 -8.40625 L 7.59375 -8.40625 L 7.59375 -6.609375 L 4.9375 -6.609375 L 4.9375 0 Z M 3.03125 0 "/></g></g></g><g fill="#071214" fill-opacity="1"><g transform="translate(197.562563, 283.506603)"><g><path d="M 1.015625 0 L 1.015625 -8.40625 L 2.921875 -8.40625 L 2.921875 0 Z M 1.015625 0 "/></g></g></g><g fill="#071214" fill-opacity="1"><g transform="translate(202.418708, 283.506603)"><g><path d="M 4.984375 0.171875 C 4.117188 0.171875 3.347656 -0.015625 2.671875 -0.390625 C 1.992188 -0.765625 1.460938 -1.28125 1.078125 -1.9375 C 0.703125 -2.59375 0.515625 -3.347656 0.515625 -4.203125 C 0.515625 -5.054688 0.703125 -5.8125 1.078125 -6.46875 C 1.460938 -7.125 1.992188 -7.632812 2.671875 -8 C 3.347656 -8.375 4.117188 -8.5625 4.984375 -8.5625 C 5.867188 -8.5625 6.644531 -8.375 7.3125 -8 C 7.988281 -7.632812 8.519531 -7.125 8.90625 -6.46875 C 9.289062 -5.8125 9.484375 -5.054688 9.484375 -4.203125 C 9.484375 -3.347656 9.289062 -2.59375 8.90625 -1.9375 C 8.519531 -1.28125 7.988281 -0.765625 7.3125 -0.390625 C 6.644531 -0.015625 5.867188 0.171875 4.984375 0.171875 Z M 2.453125 -4.203125 C 2.453125 -3.691406 2.5625 -3.242188 2.78125 -2.859375 C 3 -2.484375 3.296875 -2.1875 3.671875 -1.96875 C 4.054688 -1.75 4.492188 -1.640625 4.984375 -1.640625 C 5.492188 -1.640625 5.9375 -1.75 6.3125 -1.96875 C 6.695312 -2.1875 6.992188 -2.484375 7.203125 -2.859375 C 7.421875 -3.242188 7.53125 -3.691406 7.53125 -4.203125 C 7.53125 -4.703125 7.421875 -5.144531 7.203125 -5.53125 C 6.992188 -5.914062 6.695312 -6.210938 6.3125 -6.421875 C 5.9375 -6.640625 5.492188 -6.75 4.984375 -6.75 C 4.492188 -6.75 4.054688 -6.640625 3.671875 -6.421875 C 3.296875 -6.210938 3 -5.914062 2.78125 -5.53125 C 2.5625 -5.144531 2.453125 -4.703125 2.453125 -4.203125 Z M 2.453125 -4.203125 "/></g></g></g><g fill="#071214" fill-opacity="1"><g transform="translate(213.340892, 283.506603)"><g><path d="M 1.015625 0 L 1.015625 -8.40625 L 2.625 -8.40625 L 6.34375 -3.28125 L 6.34375 -8.40625 L 8.234375 -8.40625 L 8.234375 0 L 6.609375 0 L 2.90625 -5.140625 L 2.90625 0 Z M 1.015625 0 "/></g></g></g><g fill="#071214" fill-opacity="1"><g transform="translate(223.507811, 283.506603)"><g><path d="M 3.9375 0.171875 C 3.226562 0.171875 2.617188 0.0546875 2.109375 -0.171875 C 1.609375 -0.410156 1.21875 -0.742188 0.9375 -1.171875 C 0.664062 -1.597656 0.53125 -2.097656 0.53125 -2.671875 L 2.40625 -2.671875 C 2.40625 -2.273438 2.539062 -1.960938 2.8125 -1.734375 C 3.09375 -1.515625 3.460938 -1.40625 3.921875 -1.40625 C 4.328125 -1.40625 4.644531 -1.484375 4.875 -1.640625 C 5.101562 -1.796875 5.21875 -2.015625 5.21875 -2.296875 C 5.21875 -2.585938 5.078125 -2.820312 4.796875 -3 C 4.515625 -3.1875 4.078125 -3.347656 3.484375 -3.484375 C 2.503906 -3.691406 1.773438 -4.003906 1.296875 -4.421875 C 0.828125 -4.847656 0.59375 -5.398438 0.59375 -6.078125 C 0.59375 -6.847656 0.875 -7.453125 1.4375 -7.890625 C 2 -8.335938 2.765625 -8.5625 3.734375 -8.5625 C 4.398438 -8.5625 4.972656 -8.445312 5.453125 -8.21875 C 5.941406 -8 6.320312 -7.679688 6.59375 -7.265625 C 6.863281 -6.847656 7 -6.359375 7 -5.796875 L 5.15625 -5.796875 C 5.15625 -6.171875 5.03125 -6.46875 4.78125 -6.6875 C 4.539062 -6.90625 4.195312 -7.015625 3.75 -7.015625 C 3.351562 -7.015625 3.035156 -6.9375 2.796875 -6.78125 C 2.566406 -6.625 2.453125 -6.40625 2.453125 -6.125 C 2.453125 -5.863281 2.582031 -5.644531 2.84375 -5.46875 C 3.101562 -5.289062 3.550781 -5.128906 4.1875 -4.984375 C 5.238281 -4.734375 5.992188 -4.398438 6.453125 -3.984375 C 6.921875 -3.566406 7.15625 -3.023438 7.15625 -2.359375 C 7.15625 -1.566406 6.867188 -0.945312 6.296875 -0.5 C 5.722656 -0.0507812 4.9375 0.171875 3.9375 0.171875 Z M 3.9375 0.171875 "/></g></g></g><g fill="#071214" fill-opacity="1"><g transform="translate(232.128255, 283.506603)"><g/></g></g><g fill="#071214" fill-opacity="1"><g transform="translate(235.881482, 283.506603)"><g><path d="M 1.015625 0 L 1.015625 -8.40625 L 2.921875 -8.40625 L 2.921875 -1.78125 L 6.59375 -1.78125 L 6.59375 0 Z M 1.015625 0 "/></g></g></g><g fill="#071214" fill-opacity="1"><g transform="translate(243.722687, 283.506603)"><g><path d="M 1.015625 0 L 1.015625 -8.40625 L 2.921875 -8.40625 L 2.921875 -1.78125 L 6.59375 -1.78125 L 6.59375 0 Z M 1.015625 0 "/></g></g></g><g fill="#071214" fill-opacity="1"><g transform="translate(251.563893, 283.506603)"><g><path d="M 4.859375 0.171875 C 4.015625 0.171875 3.265625 -0.015625 2.609375 -0.390625 C 1.953125 -0.765625 1.4375 -1.28125 1.0625 -1.9375 C 0.695312 -2.59375 0.515625 -3.347656 0.515625 -4.203125 C 0.515625 -5.054688 0.695312 -5.8125 1.0625 -6.46875 C 1.4375 -7.125 1.945312 -7.632812 2.59375 -8 C 3.25 -8.375 4 -8.5625 4.84375 -8.5625 C 5.5625 -8.5625 6.210938 -8.425781 6.796875 -8.15625 C 7.390625 -7.882812 7.890625 -7.5 8.296875 -7 C 8.703125 -6.507812 8.984375 -5.925781 9.140625 -5.25 L 7.171875 -5.25 C 7.015625 -5.71875 6.734375 -6.082031 6.328125 -6.34375 C 5.921875 -6.613281 5.445312 -6.75 4.90625 -6.75 C 4.4375 -6.75 4.015625 -6.640625 3.640625 -6.421875 C 3.265625 -6.210938 2.972656 -5.914062 2.765625 -5.53125 C 2.554688 -5.144531 2.453125 -4.703125 2.453125 -4.203125 C 2.453125 -3.691406 2.554688 -3.242188 2.765625 -2.859375 C 2.972656 -2.484375 3.257812 -2.1875 3.625 -1.96875 C 4 -1.75 4.421875 -1.640625 4.890625 -1.640625 C 5.441406 -1.640625 5.925781 -1.78125 6.34375 -2.0625 C 6.757812 -2.351562 7.054688 -2.738281 7.234375 -3.21875 L 9.203125 -3.21875 C 9.066406 -2.539062 8.796875 -1.945312 8.390625 -1.4375 C 7.984375 -0.925781 7.476562 -0.53125 6.875 -0.25 C 6.269531 0.03125 5.597656 0.171875 4.859375 0.171875 Z M 4.859375 0.171875 "/></g></g></g><g fill="#071214" fill-opacity="1"><g transform="translate(262.182834, 283.506603)"><g/></g></g></svg>